<svg xmlns="http://www.w3.org/2000/svg" width="604" height="393" viewBox="0 0 604 393">
  <g id="Grupo_61702" data-name="Grupo 61702" transform="translate(-492 -7167)">
    <g id="Trazado_121040" data-name="Trazado 121040" transform="translate(652 7289)" fill="#fe7062">
      <path d="M 135.5 270.5 C 126.3401031494141 270.5 117.1860961914062 269.5772094726562 108.2922668457031 267.7572631835938 C 99.62473297119141 265.983642578125 91.09906768798828 263.3371276855469 82.95206451416016 259.8912353515625 C 74.95286560058594 256.5078735351562 67.23760223388672 252.3201599121094 60.02056503295898 247.4444274902344 C 52.87196731567383 242.6149291992188 46.14973449707031 237.0685729980469 40.04059982299805 230.9594268798828 C 33.93143463134766 224.8502655029297 28.38506698608398 218.1280364990234 23.55559921264648 210.9794311523438 C 18.67986679077148 203.7624053955078 14.49213314056396 196.0471343994141 11.10876655578613 188.0479278564453 C 7.662866592407227 179.9009704589844 5.016366481781006 171.3753051757812 3.242733240127563 162.7077331542969 C 1.422799944877625 153.8139038085938 0.5 144.6598968505859 0.5 135.5 C 0.5 126.3401031494141 1.422799944877625 117.1860961914062 3.242733240127563 108.2922668457031 C 5.016366481781006 99.62473297119141 7.662866592407227 91.09906768798828 11.10876655578613 82.95206451416016 C 14.49213314056396 74.95286560058594 18.67986679077148 67.23760223388672 23.55559921264648 60.02056503295898 C 28.38506698608398 52.87196731567383 33.93143463134766 46.14973449707031 40.04059982299805 40.04059982299805 C 46.14973449707031 33.93143463134766 52.87196731567383 28.38506698608398 60.02056503295898 23.55559921264648 C 67.23760223388672 18.67986679077148 74.95286560058594 14.49213314056396 82.95206451416016 11.10876655578613 C 91.09906768798828 7.662866592407227 99.62473297119141 5.016366481781006 108.2922668457031 3.242733240127563 C 117.1860961914062 1.422799944877625 126.3401031494141 0.5 135.5 0.5 C 144.6598968505859 0.5 153.8139038085938 1.422799944877625 162.7077331542969 3.242733240127563 C 171.3753051757812 5.016366481781006 179.9009704589844 7.662866592407227 188.0479278564453 11.10876655578613 C 196.0471343994141 14.49213314056396 203.7624053955078 18.67986679077148 210.9794311523438 23.55559921264648 C 218.1280364990234 28.38506698608398 224.8502655029297 33.93143463134766 230.9594268798828 40.04059982299805 C 237.0685729980469 46.14973449707031 242.6149291992188 52.87196731567383 247.4444274902344 60.02056503295898 C 252.3201599121094 67.23760223388672 256.5078735351562 74.95286560058594 259.8912353515625 82.95206451416016 C 263.3371276855469 91.09906768798828 265.983642578125 99.62473297119141 267.7572631835938 108.2922668457031 C 269.5772094726562 117.1860961914062 270.5 126.3401031494141 270.5 135.5 C 270.5 144.6598968505859 269.5772094726562 153.8139038085938 267.7572631835938 162.7077331542969 C 265.983642578125 171.3753051757812 263.3371276855469 179.9009704589844 259.8912353515625 188.0479278564453 C 256.5078735351562 196.0471343994141 252.3201599121094 203.7624053955078 247.4444274902344 210.9794311523438 C 242.6149291992188 218.1280364990234 237.0685729980469 224.8502655029297 230.9594268798828 230.9594268798828 C 224.8502655029297 237.0685729980469 218.1280364990234 242.6149291992188 210.9794311523438 247.4444274902344 C 203.7624053955078 252.3201599121094 196.0471343994141 256.5078735351562 188.0479278564453 259.8912353515625 C 179.9009704589844 263.3371276855469 171.3753051757812 265.983642578125 162.7077331542969 267.7572631835938 C 153.8139038085938 269.5772094726562 144.6598968505859 270.5 135.5 270.5 Z" stroke="none"/>
      <path d="M 135.5 1 C 126.3736724853516 1 117.2534332275391 1.919342041015625 108.3925018310547 3.732574462890625 C 99.75727844238281 5.499603271484375 91.263427734375 8.136260986328125 83.1468505859375 11.56924438476562 C 75.17739868164062 14.9400634765625 67.49075317382812 19.11224365234375 60.30046081542969 23.96989440917969 C 53.17825317382812 28.78157043457031 46.48078918457031 34.3074951171875 40.39414978027344 40.39414978027344 C 34.3074951171875 46.48078918457031 28.78157043457031 53.17825317382812 23.96989440917969 60.30046081542969 C 19.11224365234375 67.49075317382812 14.9400634765625 75.17739868164062 11.56924438476562 83.1468505859375 C 8.136260986328125 91.263427734375 5.499603271484375 99.75727844238281 3.732574462890625 108.3925018310547 C 1.919342041015625 117.2534332275391 1 126.3736724853516 1 135.5 C 1 144.6263122558594 1.919342041015625 153.74658203125 3.732574462890625 162.6074981689453 C 5.499603271484375 171.2427062988281 8.136260986328125 179.736572265625 11.56924438476562 187.8531494140625 C 14.9400634765625 195.8226013183594 19.11224365234375 203.5092468261719 23.96989440917969 210.6995391845703 C 28.78157043457031 217.8217468261719 34.3074951171875 224.5192108154297 40.39414978027344 230.6058654785156 C 46.48078918457031 236.6925048828125 53.17825317382812 242.2184295654297 60.30046081542969 247.0301055908203 C 67.49075317382812 251.8877563476562 75.17739868164062 256.0599365234375 83.1468505859375 259.4307556152344 C 91.263427734375 262.8637390136719 99.75727844238281 265.5003967285156 108.3925018310547 267.2674255371094 C 117.2534332275391 269.0806579589844 126.3736724853516 270 135.5 270 C 144.6263122558594 270 153.74658203125 269.0806579589844 162.6074981689453 267.2674255371094 C 171.2427062988281 265.5003967285156 179.736572265625 262.8637390136719 187.8531494140625 259.4307556152344 C 195.8226013183594 256.0599365234375 203.5092468261719 251.8877563476562 210.6995391845703 247.0301055908203 C 217.8217468261719 242.2184295654297 224.5192108154297 236.6925048828125 230.6058654785156 230.6058654785156 C 236.6925048828125 224.5192108154297 242.2184295654297 217.8217468261719 247.0301055908203 210.6995391845703 C 251.8877563476562 203.5092468261719 256.0599365234375 195.8226013183594 259.4307556152344 187.8531494140625 C 262.8637390136719 179.736572265625 265.5003967285156 171.2427062988281 267.2674255371094 162.6074981689453 C 269.0806579589844 153.74658203125 270 144.6263122558594 270 135.5 C 270 126.3736724853516 269.0806579589844 117.2534332275391 267.2674255371094 108.3925018310547 C 265.5003967285156 99.75727844238281 262.8637390136719 91.263427734375 259.4307556152344 83.1468505859375 C 256.0599365234375 75.17739868164062 251.8877563476562 67.49075317382812 247.0301055908203 60.30046081542969 C 242.2184295654297 53.17825317382812 236.6925048828125 46.48078918457031 230.6058654785156 40.39414978027344 C 224.5192108154297 34.3074951171875 217.8217468261719 28.78157043457031 210.6995391845703 23.96989440917969 C 203.5092468261719 19.11224365234375 195.8226013183594 14.9400634765625 187.8531494140625 11.56924438476562 C 179.736572265625 8.136260986328125 171.2427062988281 5.499603271484375 162.6074981689453 3.732574462890625 C 153.74658203125 1.919342041015625 144.6263122558594 1 135.5 1 M 135.5 0 C 210.3345642089844 0 271 60.66543579101562 271 135.5 C 271 210.3345642089844 210.3345642089844 271 135.5 271 C 60.66543579101562 271 0 210.3345642089844 0 135.5 C 0 60.66543579101562 60.66543579101562 0 135.5 0 Z" stroke="none" fill="#707070"/>
    </g>
    <g id="Trazado_121041" data-name="Trazado 121041" transform="translate(492 7329)" fill="#91b3fa">
      <path d="M 95 188.5 C 88.72323608398438 188.5 82.45113372802734 187.8644714355469 76.35789489746094 186.6110534667969 C 70.42070770263672 185.3897399902344 64.58063507080078 183.5673217773438 58.99994659423828 181.1944732666016 C 53.5197639465332 178.8643493652344 48.23389434814453 175.9801330566406 43.28915786743164 172.6219482421875 C 38.39049911499023 169.2950744628906 33.78386688232422 165.4742431640625 29.59726333618164 161.2655792236328 C 25.41042137145996 157.0566864013672 21.60928916931152 152.4254455566406 18.29947280883789 147.5004730224609 C 14.95815753936768 142.5286865234375 12.08842086791992 137.2137603759766 9.76992130279541 131.703369140625 C 7.408684253692627 126.091423034668 5.595184326171875 120.2185516357422 4.379815578460693 114.2479248046875 C 3.132473707199097 108.1201324462891 2.5 101.8124237060547 2.5 95.5 C 2.5 89.18757629394531 3.132473707199097 82.87986755371094 4.379815578460693 76.7520751953125 C 5.595184326171875 70.78144836425781 7.408684253692627 64.90857696533203 9.76992130279541 59.296630859375 C 12.08842086791992 53.78623580932617 14.95815753936768 48.47131729125977 18.29947280883789 43.49952697753906 C 21.60928916931152 38.57455444335938 25.41042137145996 33.94331741333008 29.59726333618164 29.73442077636719 C 33.78386688232422 25.5257625579834 38.39049911499023 21.70492172241211 43.28915786743164 18.3780517578125 C 48.23389434814453 15.01986885070801 53.5197639465332 12.13565826416016 58.99994659423828 9.805526733398438 C 64.58063507080078 7.432684421539307 70.42070770263672 5.610263347625732 76.35789489746094 4.388947486877441 C 82.45113372802734 3.135526418685913 88.72323608398438 2.5 95 2.5 C 101.2767639160156 2.5 107.5488662719727 3.135526418685913 113.6421051025391 4.388947486877441 C 119.5792922973633 5.610263347625732 125.4193649291992 7.432684421539307 131.0000457763672 9.805526733398438 C 136.4802398681641 12.13565826416016 141.7660980224609 15.01986885070801 146.7108459472656 18.3780517578125 C 151.6094970703125 21.70492172241211 156.2161254882812 25.5257625579834 160.4027404785156 29.73442077636719 C 164.5895843505859 33.94331741333008 168.3907165527344 38.57455444335938 171.7005310058594 43.49952697753906 C 175.0418395996094 48.47131729125977 177.9115753173828 53.78623580932617 180.2300720214844 59.296630859375 C 182.59130859375 64.90857696533203 184.4048156738281 70.78144836425781 185.6201782226562 76.7520751953125 C 186.8675231933594 82.87986755371094 187.5 89.18757629394531 187.5 95.5 C 187.5 101.8124237060547 186.8675231933594 108.1201324462891 185.6201782226562 114.2479248046875 C 184.4048156738281 120.2185516357422 182.59130859375 126.091423034668 180.2300720214844 131.703369140625 C 177.9115753173828 137.2137603759766 175.0418395996094 142.5286865234375 171.7005310058594 147.5004730224609 C 168.3907165527344 152.4254455566406 164.5895843505859 157.0566864013672 160.4027404785156 161.2655792236328 C 156.2161254882812 165.4742431640625 151.6094970703125 169.2950744628906 146.7108459472656 172.6219482421875 C 141.7660980224609 175.9801330566406 136.4802398681641 178.8643493652344 131.0000457763672 181.1944732666016 C 125.4193649291992 183.5673217773438 119.5792922973633 185.3897399902344 113.6421051025391 186.6110534667969 C 107.5488662719727 187.8644714355469 101.2767639160156 188.5 95 188.5 Z" stroke="none"/>
      <path d="M 95 5 C 88.89208984375 5 82.78944396972656 5.618301391601562 76.86161804199219 6.837677001953125 C 71.08676147460938 8.025619506835938 65.40634918212891 9.798202514648438 59.97817993164062 12.106201171875 C 54.64697265625 14.37297058105469 49.50456237792969 17.17893981933594 44.69374084472656 20.44618225097656 C 39.92681884765625 23.68359375 35.4439697265625 27.40179443359375 31.36967468261719 31.49752807617188 C 27.29490661621094 35.59373474121094 23.5955810546875 40.10093688964844 20.37440490722656 44.89396667480469 C 17.12290954589844 49.732177734375 14.330322265625 54.90414428710938 12.07423400878906 60.26617431640625 C 9.7767333984375 65.72667694091797 8.012176513671875 71.44111633300781 6.82958984375 77.25076293945312 C 5.615554809570312 83.21476745605469 5 89.35470581054688 5 95.5 C 5 101.6452941894531 5.615554809570312 107.7852325439453 6.82958984375 113.7492370605469 C 8.012176513671875 119.5588836669922 9.7767333984375 125.273323059082 12.07423400878906 130.7338256835938 C 14.330322265625 136.0958557128906 17.12290954589844 141.267822265625 20.37440490722656 146.1060333251953 C 23.5955810546875 150.8990631103516 27.29490661621094 155.4062652587891 31.36967468261719 159.5024719238281 C 35.4439697265625 163.5982055664062 39.92681884765625 167.31640625 44.69374084472656 170.5538177490234 C 49.50456237792969 173.8210601806641 54.64697265625 176.6270294189453 59.97817993164062 178.893798828125 C 65.40634918212891 181.2017974853516 71.08676147460938 182.9743804931641 76.86161804199219 184.1623229980469 C 82.78944396972656 185.3816986083984 88.89208984375 186 95 186 C 101.10791015625 186 107.2105560302734 185.3816986083984 113.1383819580078 184.1623229980469 C 118.9132385253906 182.9743804931641 124.5936508178711 181.2017974853516 130.0218200683594 178.893798828125 C 135.35302734375 176.6270294189453 140.4954376220703 173.8210601806641 145.3062591552734 170.5538177490234 C 150.0731811523438 167.31640625 154.5560302734375 163.5982055664062 158.6303253173828 159.5024719238281 C 162.7050933837891 155.4062652587891 166.4044189453125 150.8990631103516 169.6255798339844 146.1060333251953 C 172.8770904541016 141.267822265625 175.669677734375 136.0958557128906 177.9257659912109 130.7338256835938 C 180.2232666015625 125.273323059082 181.9878234863281 119.5588836669922 183.17041015625 113.7492370605469 C 184.3844451904297 107.7852325439453 185 101.6452941894531 185 95.5 C 185 89.35470581054688 184.3844451904297 83.21476745605469 183.17041015625 77.25076293945312 C 181.9878234863281 71.44111633300781 180.2232666015625 65.72667694091797 177.9257659912109 60.26617431640625 C 175.669677734375 54.90414428710938 172.8770904541016 49.732177734375 169.6255798339844 44.89396667480469 C 166.4044189453125 40.10093688964844 162.7050933837891 35.59373474121094 158.6303253173828 31.49752807617188 C 154.5560302734375 27.40179443359375 150.0731811523438 23.68359375 145.3062591552734 20.44618225097656 C 140.4954376220703 17.17893981933594 135.35302734375 14.37297058105469 130.0218200683594 12.106201171875 C 124.5936508178711 9.798202514648438 118.9132385253906 8.025619506835938 113.1383819580078 6.837677001953125 C 107.2105560302734 5.618301391601562 101.10791015625 5 95 5 M 95 0 C 147.4670257568359 0 190 42.75679016113281 190 95.5 C 190 148.2432098388672 147.4670257568359 191 95 191 C 42.53297424316406 191 0 148.2432098388672 0 95.5 C 0 42.75679016113281 42.53297424316406 0 95 0 Z" stroke="none" fill="#fff"/>
    </g>
    <g id="Trazado_121042" data-name="Trazado 121042" transform="translate(906 7329)" fill="#1a0f91">
      <path d="M 95 188.5 C 88.72323608398438 188.5 82.45113372802734 187.8644714355469 76.35789489746094 186.6110534667969 C 70.42070770263672 185.3897399902344 64.58063507080078 183.5673217773438 58.99994659423828 181.1944732666016 C 53.5197639465332 178.8643493652344 48.23389434814453 175.9801330566406 43.28915786743164 172.6219482421875 C 38.39049911499023 169.2950744628906 33.78386688232422 165.4742431640625 29.59726333618164 161.2655792236328 C 25.41042137145996 157.0566864013672 21.60928916931152 152.4254455566406 18.29947280883789 147.5004730224609 C 14.95815753936768 142.5286865234375 12.08842086791992 137.2137603759766 9.76992130279541 131.703369140625 C 7.408684253692627 126.091423034668 5.595184326171875 120.2185516357422 4.379815578460693 114.2479248046875 C 3.132473707199097 108.1201324462891 2.5 101.8124237060547 2.5 95.5 C 2.5 89.18757629394531 3.132473707199097 82.87986755371094 4.379815578460693 76.7520751953125 C 5.595184326171875 70.78144836425781 7.408684253692627 64.90857696533203 9.76992130279541 59.296630859375 C 12.08842086791992 53.78623580932617 14.95815753936768 48.47131729125977 18.29947280883789 43.49952697753906 C 21.60928916931152 38.57455444335938 25.41042137145996 33.94331741333008 29.59726333618164 29.73442077636719 C 33.78386688232422 25.5257625579834 38.39049911499023 21.70492172241211 43.28915786743164 18.3780517578125 C 48.23389434814453 15.01986885070801 53.5197639465332 12.13565826416016 58.99994659423828 9.805526733398438 C 64.58063507080078 7.432684421539307 70.42070770263672 5.610263347625732 76.35789489746094 4.388947486877441 C 82.45113372802734 3.135526418685913 88.72323608398438 2.5 95 2.5 C 101.2767639160156 2.5 107.5488662719727 3.135526418685913 113.6421051025391 4.388947486877441 C 119.5792922973633 5.610263347625732 125.4193649291992 7.432684421539307 131.0000457763672 9.805526733398438 C 136.4802398681641 12.13565826416016 141.7660980224609 15.01986885070801 146.7108459472656 18.3780517578125 C 151.6094970703125 21.70492172241211 156.2161254882812 25.5257625579834 160.4027404785156 29.73442077636719 C 164.5895843505859 33.94331741333008 168.3907165527344 38.57455444335938 171.7005310058594 43.49952697753906 C 175.0418395996094 48.47131729125977 177.9115753173828 53.78623580932617 180.2300720214844 59.296630859375 C 182.59130859375 64.90857696533203 184.4048156738281 70.78144836425781 185.6201782226562 76.7520751953125 C 186.8675231933594 82.87986755371094 187.5 89.18757629394531 187.5 95.5 C 187.5 101.8124237060547 186.8675231933594 108.1201324462891 185.6201782226562 114.2479248046875 C 184.4048156738281 120.2185516357422 182.59130859375 126.091423034668 180.2300720214844 131.703369140625 C 177.9115753173828 137.2137603759766 175.0418395996094 142.5286865234375 171.7005310058594 147.5004730224609 C 168.3907165527344 152.4254455566406 164.5895843505859 157.0566864013672 160.4027404785156 161.2655792236328 C 156.2161254882812 165.4742431640625 151.6094970703125 169.2950744628906 146.7108459472656 172.6219482421875 C 141.7660980224609 175.9801330566406 136.4802398681641 178.8643493652344 131.0000457763672 181.1944732666016 C 125.4193649291992 183.5673217773438 119.5792922973633 185.3897399902344 113.6421051025391 186.6110534667969 C 107.5488662719727 187.8644714355469 101.2767639160156 188.5 95 188.5 Z" stroke="none"/>
      <path d="M 95 5 C 88.89208984375 5 82.78944396972656 5.618301391601562 76.86161804199219 6.837677001953125 C 71.08676147460938 8.025619506835938 65.40634918212891 9.798202514648438 59.97817993164062 12.106201171875 C 54.64697265625 14.37297058105469 49.50456237792969 17.17893981933594 44.69374084472656 20.44618225097656 C 39.92681884765625 23.68359375 35.4439697265625 27.40179443359375 31.36967468261719 31.49752807617188 C 27.29490661621094 35.59373474121094 23.5955810546875 40.10093688964844 20.37440490722656 44.89396667480469 C 17.12290954589844 49.732177734375 14.330322265625 54.90414428710938 12.07423400878906 60.26617431640625 C 9.7767333984375 65.72667694091797 8.012176513671875 71.44111633300781 6.82958984375 77.25076293945312 C 5.615554809570312 83.21476745605469 5 89.35470581054688 5 95.5 C 5 101.6452941894531 5.615554809570312 107.7852325439453 6.82958984375 113.7492370605469 C 8.012176513671875 119.5588836669922 9.7767333984375 125.273323059082 12.07423400878906 130.7338256835938 C 14.330322265625 136.0958557128906 17.12290954589844 141.267822265625 20.37440490722656 146.1060333251953 C 23.5955810546875 150.8990631103516 27.29490661621094 155.4062652587891 31.36967468261719 159.5024719238281 C 35.4439697265625 163.5982055664062 39.92681884765625 167.31640625 44.69374084472656 170.5538177490234 C 49.50456237792969 173.8210601806641 54.64697265625 176.6270294189453 59.97817993164062 178.893798828125 C 65.40634918212891 181.2017974853516 71.08676147460938 182.9743804931641 76.86161804199219 184.1623229980469 C 82.78944396972656 185.3816986083984 88.89208984375 186 95 186 C 101.10791015625 186 107.2105560302734 185.3816986083984 113.1383819580078 184.1623229980469 C 118.9132385253906 182.9743804931641 124.5936508178711 181.2017974853516 130.0218200683594 178.893798828125 C 135.35302734375 176.6270294189453 140.4954376220703 173.8210601806641 145.3062591552734 170.5538177490234 C 150.0731811523438 167.31640625 154.5560302734375 163.5982055664062 158.6303253173828 159.5024719238281 C 162.7050933837891 155.4062652587891 166.4044189453125 150.8990631103516 169.6255798339844 146.1060333251953 C 172.8770904541016 141.267822265625 175.669677734375 136.0958557128906 177.9257659912109 130.7338256835938 C 180.2232666015625 125.273323059082 181.9878234863281 119.5588836669922 183.17041015625 113.7492370605469 C 184.3844451904297 107.7852325439453 185 101.6452941894531 185 95.5 C 185 89.35470581054688 184.3844451904297 83.21476745605469 183.17041015625 77.25076293945312 C 181.9878234863281 71.44111633300781 180.2232666015625 65.72667694091797 177.9257659912109 60.26617431640625 C 175.669677734375 54.90414428710938 172.8770904541016 49.732177734375 169.6255798339844 44.89396667480469 C 166.4044189453125 40.10093688964844 162.7050933837891 35.59373474121094 158.6303253173828 31.49752807617188 C 154.5560302734375 27.40179443359375 150.0731811523438 23.68359375 145.3062591552734 20.44618225097656 C 140.4954376220703 17.17893981933594 135.35302734375 14.37297058105469 130.0218200683594 12.106201171875 C 124.5936508178711 9.798202514648438 118.9132385253906 8.025619506835938 113.1383819580078 6.837677001953125 C 107.2105560302734 5.618301391601562 101.10791015625 5 95 5 M 95 0 C 147.4670257568359 0 190 42.75679016113281 190 95.5 C 190 148.2432098388672 147.4670257568359 191 95 191 C 42.53297424316406 191 0 148.2432098388672 0 95.5 C 0 42.75679016113281 42.53297424316406 0 95 0 Z" stroke="none" fill="#fff"/>
    </g>
    <g id="Trazado_121043" data-name="Trazado 121043" transform="translate(692 7167)" fill="#57dbd8">
      <path d="M 95.5 187.5 C 89.18757629394531 187.5 82.87986755371094 186.8675231933594 76.7520751953125 185.6201782226562 C 70.78144836425781 184.4048156738281 64.90857696533203 182.59130859375 59.296630859375 180.2300720214844 C 53.78623580932617 177.9115753173828 48.47131729125977 175.0418395996094 43.49952697753906 171.7005310058594 C 38.57455444335938 168.3907165527344 33.94331741333008 164.5895843505859 29.73442077636719 160.4027404785156 C 25.5257625579834 156.2161254882812 21.70492172241211 151.6094970703125 18.3780517578125 146.7108459472656 C 15.01986885070801 141.7660980224609 12.13565826416016 136.4802398681641 9.805526733398438 131.0000457763672 C 7.432684421539307 125.4193649291992 5.610263347625732 119.5792922973633 4.388947486877441 113.6421051025391 C 3.135526418685913 107.5488662719727 2.5 101.2767639160156 2.5 95 C 2.5 88.72323608398438 3.135526418685913 82.45113372802734 4.388947486877441 76.35789489746094 C 5.610263347625732 70.42070770263672 7.432684421539307 64.58063507080078 9.805526733398438 58.99994659423828 C 12.13565826416016 53.5197639465332 15.01986885070801 48.23389434814453 18.3780517578125 43.28915786743164 C 21.70492172241211 38.39049911499023 25.5257625579834 33.78386688232422 29.73442077636719 29.59726333618164 C 33.94331741333008 25.41042137145996 38.57455444335938 21.60928916931152 43.49952697753906 18.29947280883789 C 48.47131729125977 14.95815753936768 53.78623580932617 12.08842086791992 59.296630859375 9.76992130279541 C 64.90857696533203 7.408684253692627 70.78144836425781 5.595184326171875 76.7520751953125 4.379815578460693 C 82.87986755371094 3.132473707199097 89.18757629394531 2.5 95.5 2.5 C 101.8124237060547 2.5 108.1201324462891 3.132473707199097 114.2479248046875 4.379815578460693 C 120.2185516357422 5.595184326171875 126.091423034668 7.408684253692627 131.703369140625 9.76992130279541 C 137.2137603759766 12.08842086791992 142.5286865234375 14.95815753936768 147.5004730224609 18.29947280883789 C 152.4254455566406 21.60928916931152 157.0566864013672 25.41042137145996 161.2655792236328 29.59726333618164 C 165.4742431640625 33.78386688232422 169.2950744628906 38.39049911499023 172.6219482421875 43.28915786743164 C 175.9801330566406 48.23389434814453 178.8643493652344 53.5197639465332 181.1944732666016 58.99994659423828 C 183.5673217773438 64.58063507080078 185.3897399902344 70.42070770263672 186.6110534667969 76.35789489746094 C 187.8644714355469 82.45113372802734 188.5 88.72323608398438 188.5 95 C 188.5 101.2767639160156 187.8644714355469 107.5488662719727 186.6110534667969 113.6421051025391 C 185.3897399902344 119.5792922973633 183.5673217773438 125.4193649291992 181.1944732666016 131.0000457763672 C 178.8643493652344 136.4802398681641 175.9801330566406 141.7660980224609 172.6219482421875 146.7108459472656 C 169.2950744628906 151.6094970703125 165.4742431640625 156.2161254882812 161.2655792236328 160.4027404785156 C 157.0566864013672 164.5895843505859 152.4254455566406 168.3907165527344 147.5004730224609 171.7005310058594 C 142.5286865234375 175.0418395996094 137.2137603759766 177.9115753173828 131.703369140625 180.2300720214844 C 126.091423034668 182.59130859375 120.2185516357422 184.4048156738281 114.2479248046875 185.6201782226562 C 108.1201324462891 186.8675231933594 101.8124237060547 187.5 95.5 187.5 Z" stroke="none"/>
      <path d="M 95.5 5 C 89.35470581054688 5 83.21476745605469 5.615554809570312 77.25076293945312 6.82958984375 C 71.44111633300781 8.012176513671875 65.72667694091797 9.7767333984375 60.26617431640625 12.07423400878906 C 54.90414428710938 14.330322265625 49.732177734375 17.12290954589844 44.89396667480469 20.37440490722656 C 40.10093688964844 23.5955810546875 35.59373474121094 27.29490661621094 31.49752807617188 31.36967468261719 C 27.40179443359375 35.4439697265625 23.68359375 39.92681884765625 20.44618225097656 44.69374084472656 C 17.17893981933594 49.50456237792969 14.37297058105469 54.64697265625 12.106201171875 59.97817993164062 C 9.798202514648438 65.40634918212891 8.025619506835938 71.08676147460938 6.837677001953125 76.86161804199219 C 5.618301391601562 82.78944396972656 5 88.89208984375 5 95 C 5 101.10791015625 5.618301391601562 107.2105560302734 6.837677001953125 113.1383819580078 C 8.025619506835938 118.9132385253906 9.798202514648438 124.5936508178711 12.106201171875 130.0218200683594 C 14.37297058105469 135.35302734375 17.17893981933594 140.4954376220703 20.44618225097656 145.3062591552734 C 23.68359375 150.0731811523438 27.40179443359375 154.5560302734375 31.49752807617188 158.6303253173828 C 35.59373474121094 162.7050933837891 40.10093688964844 166.4044189453125 44.89396667480469 169.6255798339844 C 49.732177734375 172.8770904541016 54.90414428710938 175.669677734375 60.26617431640625 177.9257659912109 C 65.72667694091797 180.2232666015625 71.44111633300781 181.9878234863281 77.25076293945312 183.17041015625 C 83.21476745605469 184.3844451904297 89.35470581054688 185 95.5 185 C 101.6452941894531 185 107.7852325439453 184.3844451904297 113.7492370605469 183.17041015625 C 119.5588836669922 181.9878234863281 125.273323059082 180.2232666015625 130.7338256835938 177.9257659912109 C 136.0958557128906 175.669677734375 141.267822265625 172.8770904541016 146.1060333251953 169.6255798339844 C 150.8990631103516 166.4044189453125 155.4062652587891 162.7050933837891 159.5024719238281 158.6303253173828 C 163.5982055664062 154.5560302734375 167.31640625 150.0731811523438 170.5538177490234 145.3062591552734 C 173.8210601806641 140.4954376220703 176.6270294189453 135.35302734375 178.893798828125 130.0218200683594 C 181.2017974853516 124.5936508178711 182.9743804931641 118.9132385253906 184.1623229980469 113.1383819580078 C 185.3816986083984 107.2105560302734 186 101.10791015625 186 95 C 186 88.89208984375 185.3816986083984 82.78944396972656 184.1623229980469 76.86161804199219 C 182.9743804931641 71.08676147460938 181.2017974853516 65.40634918212891 178.893798828125 59.97817993164062 C 176.6270294189453 54.64697265625 173.8210601806641 49.50456237792969 170.5538177490234 44.69374084472656 C 167.31640625 39.92681884765625 163.5982055664062 35.4439697265625 159.5024719238281 31.36967468261719 C 155.4062652587891 27.29490661621094 150.8990631103516 23.5955810546875 146.1060333251953 20.37440490722656 C 141.267822265625 17.12290954589844 136.0958557128906 14.330322265625 130.7338256835938 12.07423400878906 C 125.273323059082 9.7767333984375 119.5588836669922 8.012176513671875 113.7492370605469 6.82958984375 C 107.7852325439453 5.615554809570312 101.6452941894531 5 95.5 5 M 95.5 0 C 148.2432098388672 0 191 42.53297424316406 191 95 C 191 147.4670257568359 148.2432098388672 190 95.5 190 C 42.75679016113281 190 0 147.4670257568359 0 95 C 0 42.53297424316406 42.75679016113281 0 95.5 0 Z" stroke="none" fill="#fff"/>
    </g>
    <path id="Trazado_121044" data-name="Trazado 121044" d="M-31-15.867q-.556,7.688-5.676,12.1T-50.168.654q-9.16,0-14.411-6.167t-5.251-16.93v-2.912a28.553,28.553,0,0,1,2.421-12.1A18.142,18.142,0,0,1-60.49-45.49a19.382,19.382,0,0,1,10.452-2.8q8.244,0,13.282,4.417t5.823,12.4h-9.814q-.36-4.613-2.568-6.69t-6.723-2.077a8.339,8.339,0,0,0-7.344,3.517q-2.437,3.517-2.5,10.91v3.6q0,7.721,2.339,11.287t7.377,3.566q4.547,0,6.788-2.077t2.568-6.428Zm24.078-1.57h-7.819V0h-9.814V-47.633h17.7q8.44,0,13.021,3.762t4.58,10.632a14.654,14.654,0,0,1-2.11,8.13,14.391,14.391,0,0,1-6.4,5.185L12.546-.458V0H2.012Zm-7.819-7.95h7.917A8.106,8.106,0,0,0-1.1-27.268,6.724,6.724,0,0,0,.932-32.453a7.2,7.2,0,0,0-1.914-5.3q-1.914-1.93-5.872-1.93h-7.884ZM31.03-47.633,43.265-13.086l12.17-34.547h12.89V0H58.478V-13.021L59.459-35.5,46.6,0H39.863L27.039-35.463l.981,22.442V0H18.206V-47.633Z" transform="translate(788 7446)" fill="#fff"/>
    <path id="Trazado_121045" data-name="Trazado 121045" d="M-44.607-3.223h-5.65L-51.332,0h-3.427l5.822-15.641h2.986L-40.1,0h-3.427Zm-4.78-2.61h3.91l-1.966-5.854Zm12.891-5.79.1,1.343a4.058,4.058,0,0,1,3.341-1.558,3.372,3.372,0,0,1,2.75,1.085,5.062,5.062,0,0,1,.924,3.244V0h-3.1V-7.434a2.014,2.014,0,0,0-.43-1.434,1.924,1.924,0,0,0-1.429-.446A2.136,2.136,0,0,0-36.314-8.2V0h-3.1V-11.623ZM-20.3,0a3.448,3.448,0,0,1-.312-1.042A3.756,3.756,0,0,1-23.542.215a4.127,4.127,0,0,1-2.831-.988,3.178,3.178,0,0,1-1.123-2.492A3.285,3.285,0,0,1-26.125-6.1a6.758,6.758,0,0,1,3.958-1h1.429v-.666a1.915,1.915,0,0,0-.414-1.289,1.627,1.627,0,0,0-1.305-.483,1.85,1.85,0,0,0-1.23.376,1.277,1.277,0,0,0-.446,1.031h-3.1A3.118,3.118,0,0,1-26.614-10a4.118,4.118,0,0,1,1.762-1.348,6.42,6.42,0,0,1,2.557-.489,5.073,5.073,0,0,1,3.411,1.08,3.777,3.777,0,0,1,1.262,3.035v5.038a5.557,5.557,0,0,0,.462,2.5V0Zm-2.567-2.159A2.674,2.674,0,0,0-21.6-2.465a2.011,2.011,0,0,0,.859-.822v-2H-21.9q-2.331,0-2.481,1.611l-.011.183a1.243,1.243,0,0,0,.408.956A1.586,1.586,0,0,0-22.865-2.159ZM-11.961,0h-3.115V-16.5h3.115Zm5.833,0H-9.244V-11.623h3.115Zm-3.3-14.631a1.529,1.529,0,0,1,.467-1.149,1.755,1.755,0,0,1,1.273-.451,1.759,1.759,0,0,1,1.268.451,1.52,1.52,0,0,1,.473,1.149,1.524,1.524,0,0,1-.478,1.16,1.764,1.764,0,0,1-1.262.451,1.764,1.764,0,0,1-1.262-.451A1.524,1.524,0,0,1-9.426-14.631ZM-.005-2.5H5.677V0H-3.969V-1.891L1.5-9.12H-3.808v-2.5H5.505v1.829ZM14.357,0a3.447,3.447,0,0,1-.312-1.042A3.756,3.756,0,0,1,11.113.215,4.127,4.127,0,0,1,8.282-.773,3.178,3.178,0,0,1,7.16-3.266,3.285,3.285,0,0,1,8.529-6.1a6.758,6.758,0,0,1,3.958-1h1.429v-.666A1.915,1.915,0,0,0,13.5-9.056,1.627,1.627,0,0,0,12.2-9.539a1.85,1.85,0,0,0-1.23.376,1.277,1.277,0,0,0-.446,1.031h-3.1A3.118,3.118,0,0,1,8.041-10,4.118,4.118,0,0,1,9.8-11.349a6.42,6.42,0,0,1,2.557-.489,5.073,5.073,0,0,1,3.411,1.08,3.777,3.777,0,0,1,1.262,3.035v5.038a5.557,5.557,0,0,0,.462,2.5V0ZM11.79-2.159a2.674,2.674,0,0,0,1.268-.306,2.011,2.011,0,0,0,.859-.822v-2h-1.16q-2.331,0-2.481,1.611l-.011.183a1.243,1.243,0,0,0,.408.956A1.586,1.586,0,0,0,11.79-2.159ZM25.948-8.712A8.434,8.434,0,0,0,24.831-8.8a2.274,2.274,0,0,0-2.31,1.192V0h-3.1V-11.623h2.933l.086,1.386a2.877,2.877,0,0,1,2.589-1.6,3.253,3.253,0,0,1,.967.14ZM39.655,0a3.447,3.447,0,0,1-.312-1.042A3.756,3.756,0,0,1,36.411.215,4.127,4.127,0,0,1,33.58-.773a3.178,3.178,0,0,1-1.123-2.492A3.285,3.285,0,0,1,33.827-6.1a6.758,6.758,0,0,1,3.958-1h1.429v-.666A1.915,1.915,0,0,0,38.8-9.056,1.627,1.627,0,0,0,37.5-9.539a1.85,1.85,0,0,0-1.23.376,1.277,1.277,0,0,0-.446,1.031h-3.1A3.119,3.119,0,0,1,33.338-10,4.118,4.118,0,0,1,35.1-11.349a6.42,6.42,0,0,1,2.557-.489,5.073,5.073,0,0,1,3.411,1.08A3.777,3.777,0,0,1,42.33-7.724v5.038a5.557,5.557,0,0,0,.462,2.5V0ZM37.087-2.159a2.674,2.674,0,0,0,1.268-.306,2.011,2.011,0,0,0,.859-.822v-2h-1.16q-2.331,0-2.481,1.611l-.011.183a1.243,1.243,0,0,0,.408.956A1.586,1.586,0,0,0,37.087-2.159ZM47.991,0H44.875V-16.5h3.115Zm-75.3,23.712a2.036,2.036,0,0,0,1.4-.473,1.656,1.656,0,0,0,.559-1.257h2.911a3.982,3.982,0,0,1-.645,2.165,4.253,4.253,0,0,1-1.735,1.525,5.43,5.43,0,0,1-2.433.542A5.046,5.046,0,0,1-31.19,24.63a6.27,6.27,0,0,1-1.439-4.377v-.2A6.2,6.2,0,0,1-31.2,15.763a4.987,4.987,0,0,1,3.921-1.6,4.889,4.889,0,0,1,3.5,1.241,4.393,4.393,0,0,1,1.337,3.3h-2.911a2.133,2.133,0,0,0-.559-1.474,1.862,1.862,0,0,0-1.418-.567,1.87,1.87,0,0,0-1.638.791,4.583,4.583,0,0,0-.553,2.566v.323a4.641,4.641,0,0,0,.548,2.582A1.893,1.893,0,0,0-27.312,23.712ZM-17.4,26h-3.115V9.5H-17.4Zm5.833,0h-3.115V14.377h3.115Zm-3.3-14.631a1.529,1.529,0,0,1,.467-1.149,1.755,1.755,0,0,1,1.273-.451,1.759,1.759,0,0,1,1.268.451,1.52,1.52,0,0,1,.473,1.149,1.524,1.524,0,0,1-.478,1.16,1.764,1.764,0,0,1-1.262.451,1.764,1.764,0,0,1-1.262-.451A1.524,1.524,0,0,1-14.862,11.369Zm11.2,14.846A5.706,5.706,0,0,1-7.82,24.646a5.575,5.575,0,0,1-1.606-4.179v-.3a7.021,7.021,0,0,1,.677-3.131,4.967,4.967,0,0,1,1.917-2.127A5.382,5.382,0,0,1-4,14.162a4.824,4.824,0,0,1,3.754,1.5,6.111,6.111,0,0,1,1.37,4.265V21.2h-7.4a2.884,2.884,0,0,0,.908,1.826,2.744,2.744,0,0,0,1.917.688,3.351,3.351,0,0,0,2.8-1.3L.875,24.12a4.66,4.66,0,0,1-1.891,1.542A6.2,6.2,0,0,1-3.658,26.215Zm-.354-9.55a1.94,1.94,0,0,0-1.5.626,3.241,3.241,0,0,0-.736,1.791h4.318v-.248a2.311,2.311,0,0,0-.559-1.6A2,2,0,0,0-4.012,16.665Zm9.754-2.288.1,1.343a4.058,4.058,0,0,1,3.341-1.558,3.372,3.372,0,0,1,2.75,1.085,5.062,5.062,0,0,1,.924,3.244V26h-3.1V18.566a2.014,2.014,0,0,0-.43-1.434,1.924,1.924,0,0,0-1.429-.446A2.136,2.136,0,0,0,5.924,17.8V26H2.82V14.377ZM18.922,11.52v2.857H20.91v2.277H18.922v5.8a1.385,1.385,0,0,0,.247.924,1.241,1.241,0,0,0,.945.279,4.951,4.951,0,0,0,.913-.075v2.353a6.391,6.391,0,0,1-1.88.279q-3.266,0-3.33-3.3V16.654h-1.7V14.377h1.7V11.52Zm9.066,14.7a5.706,5.706,0,0,1-4.163-1.568,5.575,5.575,0,0,1-1.606-4.179v-.3a7.021,7.021,0,0,1,.677-3.131,4.967,4.967,0,0,1,1.917-2.127,5.382,5.382,0,0,1,2.831-.747,4.824,4.824,0,0,1,3.754,1.5,6.111,6.111,0,0,1,1.37,4.265V21.2h-7.4a2.884,2.884,0,0,0,.908,1.826,2.744,2.744,0,0,0,1.917.688,3.351,3.351,0,0,0,2.8-1.3l1.525,1.708a4.66,4.66,0,0,1-1.891,1.542A6.2,6.2,0,0,1,27.989,26.215Zm-.354-9.55a1.94,1.94,0,0,0-1.5.626,3.241,3.241,0,0,0-.736,1.791h4.318v-.248a2.311,2.311,0,0,0-.559-1.6A2,2,0,0,0,27.634,16.665Z" transform="translate(784 7256)" fill="#12263f"/>
    <path id="Trazado_121046" data-name="Trazado 121046" d="M-23.246-3.223H-28.9L-29.971,0H-33.4l5.822-15.641h2.986L-18.734,0h-3.427Zm-4.78-2.61h3.91l-1.966-5.854Zm14.083-8.647v2.857h1.987v2.277h-1.987v5.8a1.385,1.385,0,0,0,.247.924,1.241,1.241,0,0,0,.945.279,4.951,4.951,0,0,0,.913-.075V-.064a6.391,6.391,0,0,1-1.88.279q-3.266,0-3.33-3.3V-9.346h-1.7v-2.277h1.7V-14.48ZM-3.7-8.712A8.434,8.434,0,0,0-4.812-8.8a2.274,2.274,0,0,0-2.31,1.192V0h-3.1V-11.623h2.933l.086,1.386a2.877,2.877,0,0,1,2.589-1.6,3.253,3.253,0,0,1,.967.14ZM4.211,0A3.447,3.447,0,0,1,3.9-1.042,3.756,3.756,0,0,1,.967.215,4.127,4.127,0,0,1-1.864-.773,3.178,3.178,0,0,1-2.986-3.266,3.285,3.285,0,0,1-1.617-6.1a6.758,6.758,0,0,1,3.958-1H3.771v-.666a1.915,1.915,0,0,0-.414-1.289,1.627,1.627,0,0,0-1.305-.483,1.85,1.85,0,0,0-1.23.376A1.277,1.277,0,0,0,.376-8.132h-3.1A3.118,3.118,0,0,1-2.105-10,4.118,4.118,0,0,1-.344-11.349a6.42,6.42,0,0,1,2.557-.489,5.073,5.073,0,0,1,3.411,1.08A3.777,3.777,0,0,1,6.886-7.724v5.038a5.557,5.557,0,0,0,.462,2.5V0ZM1.644-2.159a2.674,2.674,0,0,0,1.268-.306,2.011,2.011,0,0,0,.859-.822v-2H2.61Q.279-5.285.129-3.674l-.011.183a1.243,1.243,0,0,0,.408.956A1.586,1.586,0,0,0,1.644-2.159ZM14.62.215a5.706,5.706,0,0,1-4.163-1.568A5.575,5.575,0,0,1,8.852-5.532v-.3a7.021,7.021,0,0,1,.677-3.131,4.967,4.967,0,0,1,1.917-2.127,5.382,5.382,0,0,1,2.831-.747,4.824,4.824,0,0,1,3.754,1.5A6.111,6.111,0,0,1,19.4-6.069V-4.8H12a2.884,2.884,0,0,0,.908,1.826,2.744,2.744,0,0,0,1.917.688,3.351,3.351,0,0,0,2.8-1.3L19.153-1.88A4.66,4.66,0,0,1,17.263-.338,6.2,6.2,0,0,1,14.62.215Zm-.354-9.55a1.94,1.94,0,0,0-1.5.626,3.241,3.241,0,0,0-.736,1.791H16.35v-.248a2.311,2.311,0,0,0-.559-1.6A2,2,0,0,0,14.266-9.335Zm13.428.623A8.434,8.434,0,0,0,26.576-8.8a2.274,2.274,0,0,0-2.31,1.192V0h-3.1V-11.623h2.933l.086,1.386a2.877,2.877,0,0,1,2.589-1.6,3.253,3.253,0,0,1,.967.14ZM-36.964,26a3.447,3.447,0,0,1-.312-1.042,3.756,3.756,0,0,1-2.933,1.257,4.127,4.127,0,0,1-2.831-.988,3.178,3.178,0,0,1-1.123-2.492,3.285,3.285,0,0,1,1.37-2.836,6.758,6.758,0,0,1,3.958-1H-37.4v-.666a1.915,1.915,0,0,0-.414-1.289,1.627,1.627,0,0,0-1.305-.483,1.85,1.85,0,0,0-1.23.376,1.277,1.277,0,0,0-.446,1.031h-3.1A3.118,3.118,0,0,1-43.28,16a4.118,4.118,0,0,1,1.762-1.348,6.42,6.42,0,0,1,2.557-.489,5.073,5.073,0,0,1,3.411,1.08,3.777,3.777,0,0,1,1.262,3.035v5.038a5.557,5.557,0,0,0,.462,2.5V26Zm-2.567-2.159a2.674,2.674,0,0,0,1.268-.306,2.011,2.011,0,0,0,.859-.822v-2h-1.16q-2.331,0-2.481,1.611l-.011.183a1.243,1.243,0,0,0,.408.956A1.586,1.586,0,0,0-39.531,23.841ZM-28.628,26h-3.115V9.5h3.115Zm12.869-2.288a2.036,2.036,0,0,0,1.4-.473,1.656,1.656,0,0,0,.559-1.257h2.911a3.982,3.982,0,0,1-.645,2.165,4.253,4.253,0,0,1-1.735,1.525,5.43,5.43,0,0,1-2.433.542,5.046,5.046,0,0,1-3.932-1.584,6.27,6.27,0,0,1-1.439-4.377v-.2a6.2,6.2,0,0,1,1.429-4.286,4.987,4.987,0,0,1,3.921-1.6,4.889,4.889,0,0,1,3.5,1.241,4.393,4.393,0,0,1,1.337,3.3H-13.8a2.133,2.133,0,0,0-.559-1.474,1.862,1.862,0,0,0-1.418-.567,1.87,1.87,0,0,0-1.638.791,4.583,4.583,0,0,0-.553,2.566v.323a4.641,4.641,0,0,0,.548,2.582A1.893,1.893,0,0,0-15.759,23.712ZM-5.844,26H-8.959V9.5h3.115Zm5.833,0H-3.126V14.377H-.011Zm-3.3-14.631a1.529,1.529,0,0,1,.467-1.149,1.755,1.755,0,0,1,1.273-.451A1.759,1.759,0,0,1-.3,10.22a1.52,1.52,0,0,1,.473,1.149,1.524,1.524,0,0,1-.478,1.16,1.764,1.764,0,0,1-1.262.451,1.764,1.764,0,0,1-1.262-.451A1.524,1.524,0,0,1-3.309,11.369ZM7.9,26.215a5.706,5.706,0,0,1-4.163-1.568,5.575,5.575,0,0,1-1.606-4.179v-.3A7.021,7.021,0,0,1,2.8,17.036a4.967,4.967,0,0,1,1.917-2.127,5.382,5.382,0,0,1,2.831-.747,4.824,4.824,0,0,1,3.754,1.5,6.111,6.111,0,0,1,1.37,4.265V21.2h-7.4a2.884,2.884,0,0,0,.908,1.826,2.744,2.744,0,0,0,1.917.688,3.351,3.351,0,0,0,2.8-1.3l1.525,1.708a4.66,4.66,0,0,1-1.891,1.542A6.2,6.2,0,0,1,7.9,26.215Zm-.354-9.55a1.94,1.94,0,0,0-1.5.626,3.241,3.241,0,0,0-.736,1.791H9.625v-.248a2.311,2.311,0,0,0-.559-1.6A2,2,0,0,0,7.541,16.665Zm9.754-2.288.1,1.343a4.058,4.058,0,0,1,3.341-1.558,3.372,3.372,0,0,1,2.75,1.085,5.062,5.062,0,0,1,.924,3.244V26H21.3V18.566a2.014,2.014,0,0,0-.43-1.434,1.924,1.924,0,0,0-1.429-.446A2.136,2.136,0,0,0,17.478,17.8V26h-3.1V14.377ZM30.476,11.52v2.857h1.987v2.277H30.476v5.8a1.385,1.385,0,0,0,.247.924,1.241,1.241,0,0,0,.945.279,4.951,4.951,0,0,0,.913-.075v2.353a6.391,6.391,0,0,1-1.88.279q-3.266,0-3.33-3.3V16.654h-1.7V14.377h1.7V11.52Zm9.066,14.7a5.706,5.706,0,0,1-4.163-1.568,5.575,5.575,0,0,1-1.606-4.179v-.3a7.021,7.021,0,0,1,.677-3.131,4.967,4.967,0,0,1,1.917-2.127,5.382,5.382,0,0,1,2.831-.747,4.824,4.824,0,0,1,3.754,1.5,6.111,6.111,0,0,1,1.37,4.265V21.2h-7.4a2.884,2.884,0,0,0,.908,1.826,2.744,2.744,0,0,0,1.917.688,3.351,3.351,0,0,0,2.8-1.3l1.525,1.708a4.66,4.66,0,0,1-1.891,1.542A6.2,6.2,0,0,1,39.542,26.215Zm-.354-9.55a1.94,1.94,0,0,0-1.5.626,3.241,3.241,0,0,0-.736,1.791h4.318v-.248a2.311,2.311,0,0,0-.559-1.6A2,2,0,0,0,39.188,16.665Z" transform="translate(999 7418)" fill="#fff"/>
    <path id="Trazado_121047" data-name="Trazado 121047" d="M-47.228-5.726H-49.8V0h-3.223V-15.641h5.812a6.57,6.57,0,0,1,4.275,1.235,4.264,4.264,0,0,1,1.5,3.491,4.812,4.812,0,0,1-.693,2.669,4.725,4.725,0,0,1-2.1,1.7L-40.836-.15V0H-44.3ZM-49.8-8.336h2.6a2.662,2.662,0,0,0,1.88-.618,2.208,2.208,0,0,0,.666-1.7,2.363,2.363,0,0,0-.628-1.74,2.612,2.612,0,0,0-1.928-.634H-49.8ZM-33.833.215A5.706,5.706,0,0,1-38-1.354,5.575,5.575,0,0,1-39.6-5.532v-.3a7.021,7.021,0,0,1,.677-3.131,4.967,4.967,0,0,1,1.917-2.127,5.382,5.382,0,0,1,2.831-.747,4.824,4.824,0,0,1,3.754,1.5,6.111,6.111,0,0,1,1.37,4.265V-4.8h-7.4a2.884,2.884,0,0,0,.908,1.826,2.744,2.744,0,0,0,1.917.688,3.351,3.351,0,0,0,2.8-1.3L-29.3-1.88A4.66,4.66,0,0,1-31.19-.338,6.2,6.2,0,0,1-33.833.215Zm-.354-9.55a1.94,1.94,0,0,0-1.5.626,3.241,3.241,0,0,0-.736,1.791H-32.1v-.248a2.311,2.311,0,0,0-.559-1.6A2,2,0,0,0-34.187-9.335ZM-24.014,0h-3.115V-16.5h3.115Zm9.292,0a3.447,3.447,0,0,1-.312-1.042A3.756,3.756,0,0,1-17.966.215,4.127,4.127,0,0,1-20.8-.773a3.178,3.178,0,0,1-1.123-2.492A3.285,3.285,0,0,1-20.55-6.1a6.758,6.758,0,0,1,3.958-1h1.429v-.666a1.915,1.915,0,0,0-.414-1.289,1.627,1.627,0,0,0-1.305-.483,1.85,1.85,0,0,0-1.23.376,1.277,1.277,0,0,0-.446,1.031h-3.1A3.118,3.118,0,0,1-21.039-10a4.118,4.118,0,0,1,1.762-1.348,6.42,6.42,0,0,1,2.557-.489,5.073,5.073,0,0,1,3.411,1.08,3.777,3.777,0,0,1,1.262,3.035v5.038a5.557,5.557,0,0,0,.462,2.5V0ZM-17.29-2.159a2.674,2.674,0,0,0,1.268-.306,2.011,2.011,0,0,0,.859-.822v-2h-1.16q-2.331,0-2.481,1.611l-.011.183a1.243,1.243,0,0,0,.408.956A1.586,1.586,0,0,0-17.29-2.159Zm12.461-.129a2.036,2.036,0,0,0,1.4-.473,1.656,1.656,0,0,0,.559-1.257H.038A3.982,3.982,0,0,1-.607-1.853,4.253,4.253,0,0,1-2.342-.328,5.43,5.43,0,0,1-4.775.215,5.046,5.046,0,0,1-8.707-1.37a6.27,6.27,0,0,1-1.439-4.377v-.2a6.2,6.2,0,0,1,1.429-4.286,4.987,4.987,0,0,1,3.921-1.6A4.889,4.889,0,0,1-1.3-10.6a4.393,4.393,0,0,1,1.337,3.3H-2.874a2.133,2.133,0,0,0-.559-1.474A1.862,1.862,0,0,0-4.85-9.335a1.87,1.87,0,0,0-1.638.791,4.583,4.583,0,0,0-.553,2.566v.323a4.641,4.641,0,0,0,.548,2.582A1.893,1.893,0,0,0-4.829-2.288ZM5.086,0H1.971V-11.623H5.086Zm-3.3-14.631a1.529,1.529,0,0,1,.467-1.149,1.755,1.755,0,0,1,1.273-.451A1.759,1.759,0,0,1,4.8-15.78a1.52,1.52,0,0,1,.473,1.149,1.524,1.524,0,0,1-.478,1.16,1.764,1.764,0,0,1-1.262.451,1.764,1.764,0,0,1-1.262-.451A1.524,1.524,0,0,1,1.789-14.631ZM7.16-5.919A6.893,6.893,0,0,1,7.826-9,4.876,4.876,0,0,1,9.743-11.1a5.594,5.594,0,0,1,2.906-.741,5.293,5.293,0,0,1,3.84,1.439,5.777,5.777,0,0,1,1.66,3.91l.021.795A6.075,6.075,0,0,1,16.677-1.4,5.19,5.19,0,0,1,12.67.215,5.216,5.216,0,0,1,8.658-1.4a6.182,6.182,0,0,1-1.5-4.383Zm3.1.22a4.345,4.345,0,0,0,.623,2.534,2.055,2.055,0,0,0,1.783.877,2.06,2.06,0,0,0,1.762-.866,4.754,4.754,0,0,0,.634-2.77,4.3,4.3,0,0,0-.634-2.518,2.06,2.06,0,0,0-1.783-.893,2.027,2.027,0,0,0-1.762.888A4.834,4.834,0,0,0,10.264-5.7ZM22.94-11.623l.1,1.343a4.058,4.058,0,0,1,3.341-1.558,3.372,3.372,0,0,1,2.75,1.085,5.062,5.062,0,0,1,.924,3.244V0h-3.1V-7.434a2.014,2.014,0,0,0-.43-1.434,1.924,1.924,0,0,0-1.429-.446A2.136,2.136,0,0,0,23.123-8.2V0h-3.1V-11.623ZM37.753.215a5.706,5.706,0,0,1-4.163-1.568,5.575,5.575,0,0,1-1.606-4.179v-.3a7.021,7.021,0,0,1,.677-3.131,4.967,4.967,0,0,1,1.917-2.127,5.382,5.382,0,0,1,2.831-.747,4.824,4.824,0,0,1,3.754,1.5,6.111,6.111,0,0,1,1.37,4.265V-4.8h-7.4a2.884,2.884,0,0,0,.908,1.826,2.744,2.744,0,0,0,1.917.688,3.351,3.351,0,0,0,2.8-1.3L42.287-1.88A4.66,4.66,0,0,1,40.4-.338,6.2,6.2,0,0,1,37.753.215ZM37.4-9.335a1.94,1.94,0,0,0-1.5.626,3.241,3.241,0,0,0-.736,1.791h4.318v-.248a2.311,2.311,0,0,0-.559-1.6A2,2,0,0,0,37.4-9.335ZM50.59-3.212a1,1,0,0,0-.564-.9,6.406,6.406,0,0,0-1.81-.585q-4.146-.87-4.146-3.523A3.194,3.194,0,0,1,45.354-10.8a5.178,5.178,0,0,1,3.357-1.037A5.573,5.573,0,0,1,52.25-10.8a3.284,3.284,0,0,1,1.327,2.707h-3.1a1.5,1.5,0,0,0-.43-1.1A1.818,1.818,0,0,0,48.7-9.625a1.858,1.858,0,0,0-1.214.354,1.119,1.119,0,0,0-.43.9.957.957,0,0,0,.489.833,5.028,5.028,0,0,0,1.649.548,13.468,13.468,0,0,1,1.955.521,3.212,3.212,0,0,1,2.46,3.126A3.032,3.032,0,0,1,52.245-.768a5.885,5.885,0,0,1-3.523.983,6.147,6.147,0,0,1-2.594-.521,4.353,4.353,0,0,1-1.778-1.429A3.32,3.32,0,0,1,43.7-3.7h2.943a1.621,1.621,0,0,0,.612,1.268,2.429,2.429,0,0,0,1.525.44,2.248,2.248,0,0,0,1.348-.338A1.053,1.053,0,0,0,50.59-3.212ZM-59.77,23.712a2.036,2.036,0,0,0,1.4-.473,1.656,1.656,0,0,0,.559-1.257H-54.9a3.982,3.982,0,0,1-.645,2.165,4.253,4.253,0,0,1-1.735,1.525,5.43,5.43,0,0,1-2.433.542,5.046,5.046,0,0,1-3.932-1.584,6.27,6.27,0,0,1-1.439-4.377v-.2a6.2,6.2,0,0,1,1.429-4.286,4.987,4.987,0,0,1,3.921-1.6,4.889,4.889,0,0,1,3.5,1.241,4.393,4.393,0,0,1,1.337,3.3h-2.911a2.133,2.133,0,0,0-.559-1.474,1.862,1.862,0,0,0-1.418-.567,1.87,1.87,0,0,0-1.638.791,4.583,4.583,0,0,0-.553,2.566v.323a4.641,4.641,0,0,0,.548,2.582A1.893,1.893,0,0,0-59.77,23.712Zm6.155-3.631A6.893,6.893,0,0,1-52.948,17,4.876,4.876,0,0,1-51.031,14.9a5.594,5.594,0,0,1,2.906-.741,5.293,5.293,0,0,1,3.84,1.439,5.777,5.777,0,0,1,1.66,3.91l.021.795A6.075,6.075,0,0,1-44.1,24.6,5.19,5.19,0,0,1-48.1,26.215,5.216,5.216,0,0,1-52.116,24.6a6.182,6.182,0,0,1-1.5-4.383Zm3.1.22a4.345,4.345,0,0,0,.623,2.534,2.055,2.055,0,0,0,1.783.877,2.06,2.06,0,0,0,1.762-.866,4.754,4.754,0,0,0,.634-2.77,4.3,4.3,0,0,0-.634-2.518,2.06,2.06,0,0,0-1.783-.893,2.027,2.027,0,0,0-1.762.888A4.834,4.834,0,0,0-50.51,20.3Zm12.676-5.924.1,1.343A4.058,4.058,0,0,1-34.4,14.162a3.372,3.372,0,0,1,2.75,1.085,5.062,5.062,0,0,1,.924,3.244V26h-3.1V18.566a2.014,2.014,0,0,0-.43-1.434,1.924,1.924,0,0,0-1.429-.446A2.136,2.136,0,0,0-37.651,17.8V26h-3.1V14.377Zm20.292,11.838A5.706,5.706,0,0,1-21.7,24.646a5.575,5.575,0,0,1-1.606-4.179v-.3a7.021,7.021,0,0,1,.677-3.131,4.967,4.967,0,0,1,1.917-2.127,5.382,5.382,0,0,1,2.831-.747,4.824,4.824,0,0,1,3.754,1.5,6.111,6.111,0,0,1,1.37,4.265V21.2h-7.4a2.884,2.884,0,0,0,.908,1.826,2.744,2.744,0,0,0,1.917.688,3.351,3.351,0,0,0,2.8-1.3l1.525,1.708A4.66,4.66,0,0,1-14.9,25.662,6.2,6.2,0,0,1-17.542,26.215Zm-.354-9.55a1.94,1.94,0,0,0-1.5.626,3.241,3.241,0,0,0-.736,1.791h4.318v-.248a2.311,2.311,0,0,0-.559-1.6A2,2,0,0,0-17.9,16.665ZM-7.724,26h-3.115V9.5h3.115ZM5.146,23.712a2.036,2.036,0,0,0,1.4-.473A1.656,1.656,0,0,0,7.1,21.982h2.911a3.982,3.982,0,0,1-.645,2.165,4.253,4.253,0,0,1-1.735,1.525,5.43,5.43,0,0,1-2.433.542A5.046,5.046,0,0,1,1.268,24.63,6.27,6.27,0,0,1-.172,20.253v-.2a6.2,6.2,0,0,1,1.429-4.286,4.987,4.987,0,0,1,3.921-1.6,4.889,4.889,0,0,1,3.5,1.241,4.393,4.393,0,0,1,1.337,3.3H7.1a2.133,2.133,0,0,0-.559-1.474,1.862,1.862,0,0,0-1.418-.567,1.87,1.87,0,0,0-1.638.791,4.583,4.583,0,0,0-.553,2.566v.323a4.641,4.641,0,0,0,.548,2.582A1.893,1.893,0,0,0,5.146,23.712ZM15.061,26H11.945V9.5h3.115Zm5.833,0H17.778V14.377h3.115ZM17.6,11.369a1.529,1.529,0,0,1,.467-1.149,2.014,2.014,0,0,1,2.541,0,1.64,1.64,0,0,1-.005,2.31,1.991,1.991,0,0,1-2.524,0A1.524,1.524,0,0,1,17.6,11.369ZM28.8,26.215a5.706,5.706,0,0,1-4.163-1.568,5.575,5.575,0,0,1-1.606-4.179v-.3a7.021,7.021,0,0,1,.677-3.131,4.967,4.967,0,0,1,1.917-2.127,5.382,5.382,0,0,1,2.831-.747,4.824,4.824,0,0,1,3.754,1.5,6.111,6.111,0,0,1,1.37,4.265V21.2h-7.4a2.884,2.884,0,0,0,.908,1.826A2.744,2.744,0,0,0,29,23.712a3.351,3.351,0,0,0,2.8-1.3l1.525,1.708a4.66,4.66,0,0,1-1.891,1.542A6.2,6.2,0,0,1,28.8,26.215Zm-.354-9.55a1.94,1.94,0,0,0-1.5.626,3.241,3.241,0,0,0-.736,1.791h4.318v-.248a2.311,2.311,0,0,0-.559-1.6A2,2,0,0,0,28.445,16.665ZM38.2,14.377l.1,1.343a4.058,4.058,0,0,1,3.341-1.558,3.372,3.372,0,0,1,2.75,1.085,5.062,5.062,0,0,1,.924,3.244V26h-3.1V18.566a2.014,2.014,0,0,0-.43-1.434,1.924,1.924,0,0,0-1.429-.446A2.136,2.136,0,0,0,38.382,17.8V26h-3.1V14.377ZM51.38,11.52v2.857h1.987v2.277H51.38v5.8a1.385,1.385,0,0,0,.247.924,1.241,1.241,0,0,0,.945.279,4.951,4.951,0,0,0,.913-.075v2.353a6.391,6.391,0,0,1-1.88.279q-3.266,0-3.33-3.3V16.654h-1.7V14.377h1.7V11.52Zm9.066,14.7a5.706,5.706,0,0,1-4.163-1.568,5.575,5.575,0,0,1-1.606-4.179v-.3a7.021,7.021,0,0,1,.677-3.131,4.967,4.967,0,0,1,1.917-2.127,5.382,5.382,0,0,1,2.831-.747,4.824,4.824,0,0,1,3.754,1.5,6.111,6.111,0,0,1,1.37,4.265V21.2h-7.4a2.884,2.884,0,0,0,.908,1.826,2.744,2.744,0,0,0,1.917.688,3.351,3.351,0,0,0,2.8-1.3l1.525,1.708a4.66,4.66,0,0,1-1.891,1.542A6.2,6.2,0,0,1,60.446,26.215Zm-.354-9.55a1.94,1.94,0,0,0-1.5.626,3.241,3.241,0,0,0-.736,1.791h4.318v-.248a2.311,2.311,0,0,0-.559-1.6A2,2,0,0,0,60.092,16.665Z" transform="translate(584 7418)" fill="#12263f"/>
  </g>
</svg>
